<mxfile host="app.diagrams.net" modified="2023-11-24T07:11:45.917Z" agent="Mozilla/5.0 (Windows NT 10.0; Win64; x64) AppleWebKit/537.36 (KHTML, like Gecko) Chrome/119.0.0.0 Safari/537.36" etag="FxPXWQFK-VxeiDNMRw-B" version="22.1.3" type="device">
  <diagram name="Page-1" id="AGim3Q3yby8QsKjuXSSS">
    <mxGraphModel dx="525" dy="1495" grid="1" gridSize="10" guides="1" tooltips="1" connect="1" arrows="1" fold="1" page="1" pageScale="1" pageWidth="850" pageHeight="1100" math="0" shadow="0">
      <root>
        <mxCell id="0" />
        <mxCell id="1" parent="0" />
        <mxCell id="Z2npAJEm90k-4bvzEklA-1" value="SQLite" style="shape=cylinder3;whiteSpace=wrap;html=1;boundedLbl=1;backgroundOutline=1;size=15;" vertex="1" parent="1">
          <mxGeometry x="460" y="240" width="60" height="80" as="geometry" />
        </mxCell>
        <mxCell id="Z2npAJEm90k-4bvzEklA-2" value="&lt;font size=&quot;1&quot;&gt;SQLite&lt;/font&gt;" style="shape=cylinder3;whiteSpace=wrap;html=1;boundedLbl=1;backgroundOutline=1;size=15;" vertex="1" parent="1">
          <mxGeometry x="440" y="-10" width="60" height="80" as="geometry" />
        </mxCell>
        <mxCell id="Z2npAJEm90k-4bvzEklA-9" style="edgeStyle=orthogonalEdgeStyle;rounded=0;orthogonalLoop=1;jettySize=auto;html=1;entryX=0;entryY=0.5;entryDx=0;entryDy=0;" edge="1" parent="1" source="Z2npAJEm90k-4bvzEklA-3" target="Z2npAJEm90k-4bvzEklA-5">
          <mxGeometry relative="1" as="geometry" />
        </mxCell>
        <mxCell id="Z2npAJEm90k-4bvzEklA-3" value="Actor" style="shape=umlActor;verticalLabelPosition=bottom;verticalAlign=top;html=1;outlineConnect=0;" vertex="1" parent="1">
          <mxGeometry x="20" y="120" width="30" height="60" as="geometry" />
        </mxCell>
        <mxCell id="Z2npAJEm90k-4bvzEklA-10" style="edgeStyle=orthogonalEdgeStyle;rounded=0;orthogonalLoop=1;jettySize=auto;html=1;entryX=0;entryY=0.5;entryDx=0;entryDy=0;" edge="1" parent="1" source="Z2npAJEm90k-4bvzEklA-5" target="Z2npAJEm90k-4bvzEklA-7">
          <mxGeometry relative="1" as="geometry" />
        </mxCell>
        <mxCell id="Z2npAJEm90k-4bvzEklA-11" style="edgeStyle=orthogonalEdgeStyle;rounded=0;orthogonalLoop=1;jettySize=auto;html=1;entryX=0;entryY=0.25;entryDx=0;entryDy=0;" edge="1" parent="1" source="Z2npAJEm90k-4bvzEklA-5" target="Z2npAJEm90k-4bvzEklA-8">
          <mxGeometry relative="1" as="geometry" />
        </mxCell>
        <mxCell id="Z2npAJEm90k-4bvzEklA-12" style="edgeStyle=orthogonalEdgeStyle;rounded=0;orthogonalLoop=1;jettySize=auto;html=1;entryX=0;entryY=0.5;entryDx=0;entryDy=0;" edge="1" parent="1" source="Z2npAJEm90k-4bvzEklA-5" target="Z2npAJEm90k-4bvzEklA-6">
          <mxGeometry relative="1" as="geometry" />
        </mxCell>
        <mxCell id="Z2npAJEm90k-4bvzEklA-5" value="API Gateway" style="rounded=0;whiteSpace=wrap;html=1;" vertex="1" parent="1">
          <mxGeometry x="110" y="120" width="120" height="60" as="geometry" />
        </mxCell>
        <mxCell id="Z2npAJEm90k-4bvzEklA-6" value="Account Service" style="rounded=0;whiteSpace=wrap;html=1;" vertex="1" parent="1">
          <mxGeometry x="270" y="250" width="120" height="60" as="geometry" />
        </mxCell>
        <mxCell id="Z2npAJEm90k-4bvzEklA-7" value="Cart Service" style="rounded=0;whiteSpace=wrap;html=1;" vertex="1" parent="1">
          <mxGeometry x="280" y="120" width="120" height="60" as="geometry" />
        </mxCell>
        <mxCell id="Z2npAJEm90k-4bvzEklA-8" value="Inventory Service" style="rounded=0;whiteSpace=wrap;html=1;" vertex="1" parent="1">
          <mxGeometry x="260" width="120" height="60" as="geometry" />
        </mxCell>
        <mxCell id="Z2npAJEm90k-4bvzEklA-13" style="edgeStyle=orthogonalEdgeStyle;rounded=0;orthogonalLoop=1;jettySize=auto;html=1;entryX=0;entryY=0.5;entryDx=0;entryDy=0;entryPerimeter=0;" edge="1" parent="1" source="Z2npAJEm90k-4bvzEklA-6" target="Z2npAJEm90k-4bvzEklA-1">
          <mxGeometry relative="1" as="geometry" />
        </mxCell>
        <mxCell id="Z2npAJEm90k-4bvzEklA-14" style="edgeStyle=orthogonalEdgeStyle;rounded=0;orthogonalLoop=1;jettySize=auto;html=1;entryX=0;entryY=0.5;entryDx=0;entryDy=0;entryPerimeter=0;" edge="1" parent="1" source="Z2npAJEm90k-4bvzEklA-8" target="Z2npAJEm90k-4bvzEklA-2">
          <mxGeometry relative="1" as="geometry" />
        </mxCell>
        <mxCell id="Z2npAJEm90k-4bvzEklA-16" value="" style="shape=flexArrow;endArrow=classic;startArrow=classic;html=1;rounded=0;width=9;endSize=8.26;entryX=0.5;entryY=1;entryDx=0;entryDy=0;" edge="1" parent="1" target="Z2npAJEm90k-4bvzEklA-8">
          <mxGeometry width="100" height="100" relative="1" as="geometry">
            <mxPoint x="319.5" y="120" as="sourcePoint" />
            <mxPoint x="320" y="80" as="targetPoint" />
          </mxGeometry>
        </mxCell>
        <mxCell id="Z2npAJEm90k-4bvzEklA-19" value="" style="shape=flexArrow;endArrow=classic;startArrow=classic;html=1;rounded=0;" edge="1" parent="1">
          <mxGeometry width="100" height="100" relative="1" as="geometry">
            <mxPoint x="330" y="180" as="sourcePoint" />
            <mxPoint x="329.5" y="250" as="targetPoint" />
          </mxGeometry>
        </mxCell>
      </root>
    </mxGraphModel>
  </diagram>
</mxfile>
